<?xml version="1.0" encoding="UTF-8"?>
<svg version="1.1" xmlns="http://www.w3.org/2000/svg" width="500" height="500">
<path d="M0 0 C1.55837543 1.20761569 3.10519014 2.43038809 4.63671875 3.671875 C6.73440242 5.39886761 6.73440242 5.39886761 9.6171875 7.2578125 C9.6171875 7.9178125 9.6171875 8.5778125 9.6171875 9.2578125 C10.2771875 9.2578125 10.9371875 9.2578125 11.6171875 9.2578125 C13.03949597 11.21159929 14.31031122 13.13158679 15.5546875 15.1953125 C15.9144165 15.78852295 16.27414551 16.3817334 16.64477539 16.99291992 C22.57497451 27.02686572 23.77055571 36.7724411 23.75521851 48.23886108 C23.75803979 49.10843748 23.76086107 49.97801387 23.76376784 50.87394106 C23.77205869 53.76932279 23.77344732 56.664666 23.77490234 59.56005859 C23.77957454 61.64350999 23.78471877 63.72696038 23.79029846 65.81040955 C23.80155123 70.28851602 23.80999889 74.76661594 23.81641769 79.2447319 C23.82712584 86.3303854 23.84737734 93.41599164 23.86953735 100.50161743 C23.93136986 120.64754068 23.98547924 140.79346059 24.01855469 160.93945312 C24.03691253 172.07243849 24.06585971 183.20534408 24.1065594 194.33827078 C24.12760276 200.22496827 24.14308298 206.11156538 24.14536667 211.99830246 C24.14751748 217.53548442 24.1634313 223.0724571 24.18975639 228.60957527 C24.19693318 230.6371921 24.19905825 232.66483434 24.19565392 234.69246101 C24.17307733 250.70019072 25.53006019 262.59031523 36.32421875 275.26171875 C44.13190542 282.8652829 56.44836316 288.40174829 67.33392334 288.37133789 C68.25334717 288.3712674 69.172771 288.3711969 70.12005615 288.37112427 C71.11652161 288.36595795 72.11298706 288.36079163 73.13964844 288.35546875 C74.72839783 288.35327835 74.72839783 288.35327835 76.34924316 288.3510437 C78.64693417 288.34724143 80.94462225 288.34112879 83.24230194 288.33297729 C86.8829151 288.32020248 90.52349176 288.31369473 94.16412354 288.30883789 C103.20904417 288.29547168 112.25393022 288.27130688 121.29882812 288.24743652 C128.93853817 288.22767537 136.57823516 288.21204473 144.21796417 288.20187378 C147.79684289 288.19541131 151.37566772 288.18290115 154.95452881 288.17016602 C157.16206821 288.16653121 159.36960811 288.16317976 161.57714844 288.16015625 C162.56551697 288.15498993 163.5538855 288.14982361 164.57220459 288.14450073 C179.9427765 288.1433365 190.08425833 291.4361788 201.65625 302.109375 C203.47661517 304.10379899 204.57663007 305.78509001 205.6171875 308.2578125 C206.2771875 308.2578125 206.9371875 308.2578125 207.6171875 308.2578125 C212.64050792 316.59570091 216.90184845 325.4219006 217.6171875 335.2578125 C217.71193359 336.29035156 217.71193359 336.29035156 217.80859375 337.34375 C218.55231955 351.78642525 213.32681774 364.2520037 204.2109375 375.12890625 C194.37960108 385.78433998 182.53531178 391.70363494 167.97321129 392.44277191 C163.56590356 392.54280324 159.15888522 392.52852968 154.75073242 392.51660156 C153.05921275 392.51931606 151.36769426 392.52287955 149.67617798 392.52722168 C145.10316217 392.53630109 140.53023713 392.53281779 135.95721984 392.52646351 C131.14508697 392.52137128 126.33296145 392.52610472 121.52082825 392.52923584 C113.42996847 392.53286998 105.33914524 392.5280949 97.24829102 392.51855469 C87.94629244 392.50771172 78.64438185 392.51116758 69.34238547 392.5222075 C61.31728599 392.53134478 53.2922127 392.53253325 45.26710969 392.52733016 C40.49177606 392.52424035 35.71648344 392.52371663 30.94115257 392.53040314 C-36.81422833 392.61198432 -36.81422833 392.61198432 -60.4453125 369.7578125 C-74.40034402 354.84180575 -82.21491036 336.84276521 -82.97920227 316.42047119 C-83.01820092 315.46824684 -83.05719956 314.5160225 -83.09737998 313.53494287 C-83.54364357 301.55717315 -83.53087697 289.57712831 -83.52807617 277.59277344 C-83.53107618 274.99494886 -83.53448061 272.39712472 -83.53825378 269.79930115 C-83.54646646 263.53577354 -83.54930412 257.27225536 -83.54986616 251.00872281 C-83.55034494 245.91636939 -83.55241746 240.82401902 -83.55556679 235.73166656 C-83.56434034 221.24785589 -83.56899026 206.76405255 -83.56823631 192.28023919 C-83.56819636 191.50375147 -83.5681564 190.72726375 -83.56811523 189.92724609 C-83.56805391 188.76107293 -83.56805391 188.76107293 -83.56799135 187.57134071 C-83.56758371 174.93418979 -83.57719155 162.29706849 -83.5912536 149.65992615 C-83.60562705 136.63917638 -83.61252355 123.61844109 -83.61165982 110.59768319 C-83.61132865 103.30497494 -83.6140421 96.01229792 -83.62483788 88.71959686 C-83.63490882 81.87398247 -83.63459799 75.02843512 -83.62732124 68.18281746 C-83.62627604 65.67463395 -83.62863448 63.16644632 -83.6346817 60.65826988 C-83.64241218 57.22968299 -83.63774998 53.80132377 -83.63005066 50.3727417 C-83.63519422 49.38577545 -83.64033779 48.3988092 -83.64563721 47.38193488 C-83.57629902 33.36828939 -79.61212953 22.53197684 -71.3828125 11.2578125 C-70.50302734 10.04544922 -70.50302734 10.04544922 -69.60546875 8.80859375 C-66.98155098 5.79731377 -64.06029605 3.49147859 -60.8203125 1.1953125 C-60.20478516 0.75775635 -59.58925781 0.3202002 -58.95507812 -0.13061523 C-41.752644 -11.96284791 -17.08106433 -12.48877818 0 0 Z " fill="#EF842E" transform="translate(186.3828125,53.7421875)"/>
<path d="M0 0 C1.75983017 1.29928982 3.51017467 2.61154221 5.25 3.9375 C6.18328125 4.63746094 7.1165625 5.33742187 8.078125 6.05859375 C8.79484375 6.67863281 9.5115625 7.29867187 10.25 7.9375 C10.25 8.5975 10.25 9.2575 10.25 9.9375 C10.91 9.9375 11.57 9.9375 12.25 9.9375 C12.25 10.5975 12.25 11.2575 12.25 11.9375 C12.91 11.9375 13.57 11.9375 14.25 11.9375 C15.90852884 13.81736815 17.4312136 15.6902405 18.9375 17.6875 C19.38448242 18.27877686 19.83146484 18.87005371 20.29199219 19.47924805 C29.70373371 32.13577698 35.632362 45.65170562 39.25 60.9375 C39.95253906 60.77765625 40.65507812 60.6178125 41.37890625 60.453125 C58.09050566 57.45185817 75.77647829 62.72082113 89.9453125 71.6328125 C92.1708419 73.30002093 94.21243794 75.0460422 96.25 76.9375 C97.01828125 77.62714844 97.7865625 78.31679687 98.578125 79.02734375 C108.32542329 88.20981515 116.47603692 101.81912008 117.42700195 115.48022461 C117.96268384 140.47800108 117.96268384 140.47800108 113.25 150.9375 C112.84910156 151.93265625 112.44820312 152.9278125 112.03515625 153.953125 C105.14218269 169.53723913 90.91364775 181.6191881 75.25 187.9375 C65.96866335 190.96788178 57.26140949 192.08837385 47.53808594 192.11450195 C46.47062637 192.12107315 45.40316681 192.12764435 44.30335999 192.13441467 C40.7803642 192.15408129 37.25741089 192.16579473 33.734375 192.17578125 C31.92442928 192.18189454 31.92442928 192.18189454 30.07791901 192.18813133 C23.69273552 192.2089625 17.30757335 192.22327772 10.92236328 192.23266602 C4.34083952 192.24373184 -2.24034632 192.27814277 -8.82175064 192.31783772 C-13.89539199 192.34402405 -18.96895297 192.35235962 -24.04265594 192.35594749 C-26.46824174 192.36080716 -28.89382409 192.37240332 -31.31934357 192.39098549 C-34.7200021 192.41542184 -38.11978774 192.41440337 -41.52050781 192.4074707 C-42.51306076 192.42028076 -43.50561371 192.43309082 -44.52824402 192.44628906 C-52.14292773 192.38998199 -59.06849824 190.84079814 -65.15234375 186.04296875 C-65.65894531 185.41003906 -66.16554687 184.77710938 -66.6875 184.125 C-67.21214844 183.49980469 -67.73679688 182.87460937 -68.27734375 182.23046875 C-71.93810717 176.5305533 -73.19437957 171.74629569 -73.11749268 165.00993347 C-73.12239594 163.85764227 -73.12239594 163.85764227 -73.12739825 162.68207246 C-73.13464507 160.12402513 -73.12055497 157.56655674 -73.10644531 155.00854492 C-73.10723664 153.16841535 -73.10933528 151.32828595 -73.11264038 149.48815918 C-73.11776477 144.50298106 -73.10426008 139.51801013 -73.08711338 134.53286529 C-73.07206179 129.31678131 -73.07325111 124.10069984 -73.07244873 118.88459778 C-73.06875928 110.13111845 -73.05380476 101.37771769 -73.03125 92.62426758 C-73.00233075 81.37763328 -72.99202208 70.13106208 -72.9875679 58.88439465 C-72.98359304 49.22235344 -72.97109405 39.56032603 -72.95722103 29.89829469 C-72.95311811 26.78774373 -72.95019459 23.67719326 -72.94742584 20.56664085 C-72.94254261 15.68865194 -72.93235578 10.81070154 -72.91798782 5.93273163 C-72.91345545 4.13879303 -72.91062395 2.34484925 -72.90958023 0.55090523 C-72.90784139 -1.8893861 -72.89997688 -4.32958021 -72.89044189 -6.76985168 C-72.89130838 -7.48685849 -72.89217486 -8.20386531 -72.8930676 -8.94259959 C-72.86420867 -13.83408265 -72.86420867 -13.83408265 -71.75 -16.0625 C-49.84885008 -25.23042322 -17.8200486 -12.78600304 0 0 Z " fill="#6C4540" transform="translate(306.75,126.0625)"/>
<path d="M0 0 C0.72832031 0.59039062 1.45664063 1.18078125 2.20703125 1.7890625 C4.30471492 3.51605511 4.30471492 3.51605511 7.1875 5.375 C7.1875 6.035 7.1875 6.695 7.1875 7.375 C7.8475 7.375 8.5075 7.375 9.1875 7.375 C10.60980847 9.32878679 11.88062372 11.24877429 13.125 13.3125 C13.484729 13.90571045 13.84445801 14.4989209 14.21508789 15.11010742 C20.18913049 25.21823675 21.33196448 35.03002663 21.34571838 46.57519531 C21.35312535 47.9146447 21.35312535 47.9146447 21.36068195 49.28115368 C21.37596568 52.25514236 21.38439268 55.2291096 21.39282227 58.203125 C21.40240797 60.34221076 21.41241846 62.48129465 21.42282104 64.62037659 C21.44980111 70.41516061 21.47084794 76.20995272 21.49082303 82.00476456 C21.51272523 88.06528437 21.54009317 94.12577945 21.56687927 100.1862793 C21.61674897 111.65723113 21.661709 123.12819674 21.70490164 134.59917545 C21.75432297 147.66079751 21.80922292 160.72239474 21.86458123 173.78399277 C21.97831341 200.64763868 22.08517148 227.5113084 22.1875 254.375 C20.1875 253.375 20.1875 253.375 19.57046825 251.55067623 C18.94486342 247.99656027 19.04847552 244.42327515 19.05619812 240.82595825 C19.05302455 239.51870295 19.05302455 239.51870295 19.04978687 238.18503845 C19.04378608 235.25892582 19.0447871 232.33285632 19.0456543 229.40673828 C19.04262271 227.31066311 19.03910126 225.2145886 19.03512573 223.11851501 C19.027234 218.59996594 19.02209067 214.08142477 19.01883507 209.56287003 C19.01292237 202.40922891 18.99637774 195.25563749 18.97749329 188.10202026 C18.97115563 185.65175822 18.96483001 183.20149615 18.95851612 180.75123405 C18.95535031 179.52397032 18.9521845 178.29670658 18.94892275 177.03225303 C18.906878 160.37795626 18.87389352 143.72368222 18.86157227 127.06933594 C18.85317673 115.83671025 18.83062799 104.60420726 18.7922166 93.37164295 C18.77250117 87.43107354 18.76003629 81.49068736 18.76505089 75.55008316 C18.76971702 69.95379815 18.75578469 64.3578596 18.72803879 58.76164436 C18.72115918 56.71636022 18.72096532 54.67104 18.72823906 52.62575722 C18.76163123 42.17419875 18.45144416 32.95752928 15.04386616 22.98296928 C14.1875 20.375 14.1875 20.375 14.1875 17.375 C13.5275 17.375 12.8675 17.375 12.1875 17.375 C11.630625 16.26125 11.07375 15.1475 10.5 14 C8.56706867 10.56904689 7.01914566 9.5141379 3.1875 8.375 C2.52083333 7.04166667 1.85416667 5.70833333 1.1875 4.375 C-0.1325 4.375 -1.4525 4.375 -2.8125 4.375 C-2.8125 3.385 -2.8125 2.395 -2.8125 1.375 C-5.46478812 0.29974806 -8.09618454 -0.71956151 -10.8125 -1.625 C-10.8125 -2.285 -10.8125 -2.945 -10.8125 -3.625 C-12.1325 -3.625 -13.4525 -3.625 -14.8125 -3.625 C-14.8125 -4.285 -14.8125 -4.945 -14.8125 -5.625 C-18.82785068 -7.52579664 -22.00246591 -7.86070807 -26.42578125 -7.8203125 C-27.67294922 -7.81386719 -28.92011719 -7.80742188 -30.20507812 -7.80078125 C-31.49865234 -7.78402344 -32.79222656 -7.76726563 -34.125 -7.75 C-35.43791016 -7.74097656 -36.75082031 -7.73195312 -38.10351562 -7.72265625 C-41.34002913 -7.69911797 -44.57617149 -7.6662352 -47.8125 -7.625 C-34.05218244 -16.79854504 -11.89932399 -9.22101956 0 0 Z " fill="#EFB47C" transform="translate(188.8125,55.625)"/>
<path d="M0 0 C-1.6396875 0.86625 -1.6396875 0.86625 -3.3125 1.75 C-6.3358441 3.45672651 -8.03574518 5.10530868 -10 8 C-10.66 8 -11.32 8 -12 8 C-12 8.66 -12 9.32 -12 10 C-13.670625 10.12375 -13.670625 10.12375 -15.375 10.25 C-19.00337943 10.57586194 -19.00337943 10.57586194 -20.3125 12.8125 C-20.539375 13.534375 -20.76625 14.25625 -21 15 C-21.9375 17.1875 -21.9375 17.1875 -23 19 C-23.99 19.33 -24.98 19.66 -26 20 C-27.21869929 22.50447516 -27.21869929 22.50447516 -28 25 C-28.66 25 -29.32 25 -30 25 C-30 26.32 -30 27.64 -30 29 C-30.66 29 -31.32 29 -32 29 C-32.13277344 29.68707031 -32.26554687 30.37414062 -32.40234375 31.08203125 C-32.57894531 31.98308594 -32.75554687 32.88414063 -32.9375 33.8125 C-33.11152344 34.70582031 -33.28554687 35.59914062 -33.46484375 36.51953125 C-34 39 -34 39 -35 42 C-35.09377186 43.5764429 -35.13089121 45.15656058 -35.13422108 46.73578644 C-35.13867892 47.71584325 -35.14313676 48.69590007 -35.14772969 49.70565557 C-35.14754533 50.78509514 -35.14736097 51.86453471 -35.14717102 52.97668457 C-35.15084771 54.12148741 -35.1545244 55.26629025 -35.1583125 56.44578409 C-35.16744067 59.62897623 -35.1720494 62.81213807 -35.17470181 65.99534106 C-35.17860528 69.42718478 -35.1881842 72.85901358 -35.19691467 76.29084778 C-35.21668732 84.58638824 -35.22675045 92.88192994 -35.23564246 101.17748809 C-35.24002774 105.08909544 -35.24539427 109.00070145 -35.25063133 112.91230774 C-35.26765133 125.92747466 -35.28214052 138.94264074 -35.28938007 151.95781708 C-35.29128985 155.33629864 -35.29321019 158.71478019 -35.29516602 162.09326172 C-35.29564976 162.9329253 -35.2961335 163.77258887 -35.2966319 164.6376968 C-35.30491334 178.2076516 -35.33021477 191.77751771 -35.36274669 205.34743387 C-35.39591557 219.29762543 -35.41383804 233.24777212 -35.41702431 247.19800329 C-35.41918133 255.02285091 -35.42780966 262.84756954 -35.45348549 270.67237854 C-35.47532792 277.34431666 -35.48317743 284.01609452 -35.47351871 290.68806434 C-35.46901144 294.08498504 -35.47288544 297.48131133 -35.49028015 300.87822914 C-36.00478594 327.00552315 -36.00478594 327.00552315 -27 351 C-26.44699219 351.52207031 -25.89398438 352.04414063 -25.32421875 352.58203125 C-23.33449843 354.71261672 -23.24656976 356.84935156 -22.8125 359.6875 C-22.65394531 360.68136719 -22.49539062 361.67523438 -22.33203125 362.69921875 C-22.22246094 363.45847656 -22.11289063 364.21773438 -22 365 C-31.83566323 356.30751693 -36.56933906 338.98454672 -37.37233448 326.3497963 C-37.4540124 324.62372714 -37.52691067 322.89722717 -37.59248352 321.17047119 C-37.63176415 320.21768288 -37.67104478 319.26489457 -37.71151572 318.28323388 C-38.16099105 306.30339196 -38.14806498 294.32148852 -38.14526367 282.33496094 C-38.14826368 279.73713636 -38.15166811 277.13931222 -38.15544128 274.54148865 C-38.16365396 268.27796104 -38.16649162 262.01444286 -38.16705366 255.75091031 C-38.16753244 250.65855689 -38.16960496 245.56620652 -38.17275429 240.47385406 C-38.18152784 225.99004339 -38.18617776 211.50624005 -38.18542381 197.02242669 C-38.18538386 196.24593897 -38.1853439 195.46945125 -38.18530273 194.66943359 C-38.18524141 193.50326043 -38.18524141 193.50326043 -38.18517885 192.31352821 C-38.18477121 179.67637729 -38.19437905 167.03925599 -38.2084411 154.40211365 C-38.22281455 141.38136388 -38.22971105 128.36062859 -38.22884732 115.33987069 C-38.22851615 108.04716244 -38.2312296 100.75448542 -38.24202538 93.46178436 C-38.25209632 86.61616997 -38.25178549 79.77062262 -38.24450874 72.92500496 C-38.24346354 70.41682145 -38.24582198 67.90863382 -38.2518692 65.40045738 C-38.25959968 61.97187049 -38.25493748 58.54351127 -38.24723816 55.1149292 C-38.25238172 54.12796295 -38.25752529 53.1409967 -38.26282471 52.12412238 C-38.19348652 38.11047689 -34.22931703 27.27416434 -26 16 C-25.13375 14.79150391 -25.13375 14.79150391 -24.25 13.55859375 C-21.4804421 10.4091833 -18.43446845 8.18716909 -15 5.8125 C-14.38382813 5.37486328 -13.76765625 4.93722656 -13.1328125 4.48632812 C-4.47507457 -1.59824092 -4.47507457 -1.59824092 0 0 Z " fill="#E7A47A" transform="translate(141,49)"/>
<path d="M0 0 C0.33 0 0.66 0 1 0 C1.13183659 19.21385398 1.26227785 38.42771698 1.39115143 57.64159107 C1.45104887 66.56713613 1.51136752 75.49267794 1.57275391 84.41821289 C1.6263882 92.2167672 1.67915476 100.01532686 1.73096704 107.8138935 C1.75831396 111.92582263 1.78603538 116.03774829 1.81480408 120.14966774 C1.97035526 142.43345605 2.02940221 164.71566948 2 187 C2.66 187 3.32 187 4 187 C6.04169485 189.90548882 7 191.40142046 7 195 C7.804375 195.37125 7.804375 195.37125 8.625 195.75 C11 197 11 197 13.8125 199 C20.68315152 203.31099703 27.26800949 203.30230339 35.16772461 203.31884766 C36.27090027 203.32889328 37.37407593 203.3389389 38.51068115 203.34928894 C42.14123027 203.38007222 45.77170579 203.39714283 49.40234375 203.4140625 C51.92583344 203.43277802 54.44931691 203.45235172 56.97279358 203.4727478 C62.92595252 203.51879793 68.87912572 203.55622073 74.83236653 203.58942068 C81.61359474 203.62772279 88.39472827 203.67711158 95.1758765 203.72740483 C109.11718065 203.83055531 123.05854587 203.91987026 137 204 C137 204.33 137 204.66 137 205 C131.41927152 206.17083049 125.96221742 206.16175467 120.28808594 206.17700195 C119.22062637 206.18357315 118.15316681 206.19014435 117.05335999 206.19691467 C113.5303642 206.21658129 110.00741089 206.22829473 106.484375 206.23828125 C104.67442928 206.24439454 104.67442928 206.24439454 102.82791901 206.25063133 C96.44273552 206.2714625 90.05757335 206.28577772 83.67236328 206.29516602 C77.09083952 206.30623184 70.50965368 206.34064277 63.92824936 206.38033772 C58.85460801 206.40652405 53.78104703 206.41485962 48.70734406 206.41844749 C46.28175826 206.42330716 43.85617591 206.43490332 41.43065643 206.45348549 C38.0299979 206.47792184 34.63021226 206.47690337 31.22949219 206.4699707 C30.23693924 206.48278076 29.24438629 206.49559082 28.22175598 206.50878906 C20.60707227 206.45248199 13.68150176 204.90329814 7.59765625 200.10546875 C7.09105469 199.47253906 6.58445313 198.83960938 6.0625 198.1875 C5.53785156 197.56230469 5.01320312 196.93710937 4.47265625 196.29296875 C0.80750776 190.58622562 -0.44409957 185.80344175 -0.36076355 179.05897522 C-0.36332682 178.28936995 -0.3658901 177.51976469 -0.36853105 176.72683805 C-0.37344792 174.16411018 -0.35701115 171.60197966 -0.34057617 169.03930664 C-0.33972944 167.19593317 -0.34020593 165.35255868 -0.34190369 163.50918579 C-0.34276328 158.51586885 -0.32514323 153.52276877 -0.30418181 148.52950215 C-0.28540911 143.30714983 -0.2836641 138.08479236 -0.28010559 132.8624115 C-0.27078689 122.97800028 -0.24617541 113.09368878 -0.21605712 103.20932144 C-0.18250773 91.95424825 -0.16602574 80.69917025 -0.15097082 69.44405949 C-0.11962575 46.29598441 -0.06686858 23.1479978 0 0 Z " fill="#D1A481" transform="translate(234,112)"/>
<path d="M0 0 C0.99 0.33 1.98 0.66 3 1 C3.13588595 7.68860842 2.80959146 14.25849631 2.21875 20.921875 C1.9216639 25.10230078 1.81881946 28.99344145 2.5625 33.125 C3 36 3 36 2.53543091 37.78709412 C1.84004582 40.66108166 1.87270803 43.32418907 1.87060547 46.28149414 C1.86745331 47.55283707 1.86430115 48.82417999 1.86105347 50.13404846 C1.86284322 51.51775141 1.86489417 52.90145404 1.8671875 54.28515625 C1.86651366 55.7071484 1.86554297 57.12914044 1.86428833 58.5511322 C1.86281559 61.52767028 1.86495262 64.50417831 1.86962891 67.48071289 C1.87533114 71.29622058 1.87204139 75.111658 1.86605644 78.92716312 C1.86244382 81.86193878 1.86359256 84.79669776 1.86618423 87.73147392 C1.86685129 89.1384933 1.86603279 90.5455142 1.86370468 91.95253181 C1.86116617 93.91765438 1.86572106 95.88278226 1.87060547 97.84790039 C1.87140106 98.96612686 1.87219666 100.08435333 1.87301636 101.23646545 C1.87838736 104.08907654 1.87838736 104.08907654 3 107 C2.65115036 110.63385046 2.17864812 114.22606878 1.671875 117.83984375 C1.05161503 122.47149973 1.05161503 122.47149973 2 127 C1.6732039 129.33425788 1.33859959 131.66742506 1 134 C0.56205332 139.6700146 0.56205332 139.6700146 2 145 C1.94798741 146.59952304 1.82319668 148.1970207 1.66015625 149.7890625 C1.56669922 150.73007812 1.47324219 151.67109375 1.37695312 152.640625 C1.27318359 153.62546875 1.16941406 154.6103125 1.0625 155.625 C0.91264648 157.11386719 0.91264648 157.11386719 0.75976562 158.6328125 C0.51177235 161.08912681 0.25829747 163.54475137 0 166 C-0.33 166 -0.66 166 -1 166 C-1.02379504 151.4437096 -1.04120004 136.88742189 -1.05181217 122.33111572 C-1.05687951 115.56611414 -1.06386591 108.80112674 -1.07543945 102.03613281 C-1.13214453 68.00979707 -0.90252251 34.01528643 0 0 Z " fill="#E1742B" transform="translate(106,208)"/>
<path d="M0 0 C0.66 0.99 1.32 1.98 2 3 C1.1875 6.375 1.1875 6.375 0 10 C-0.86097033 13.44388133 -1.14233292 14.57300123 0 18 C-0.66 18.66 -1.32 19.32 -2 20 C-2.17689499 22.76735727 -2.23333784 25.42214029 -2.1875 28.1875 C-2.18032959 28.98744385 -2.17315918 29.7873877 -2.16577148 30.61157227 C-2.32762215 43.50204827 -2.32762215 43.50204827 0 56 C-0.33 56.99 -0.66 57.98 -1 59 C-0.67619874 60.33568021 -0.34342449 61.66923011 0 63 C-0.495 63.99 -0.495 63.99 -1 65 C-1.08462691 66.45240931 -1.10721554 67.90868412 -1.09765625 69.36352539 C-1.09435303 70.26949966 -1.0910498 71.17547394 -1.08764648 72.10890198 C-1.07934814 73.09519089 -1.0710498 74.0814798 -1.0625 75.09765625 C-1.05871338 76.11991806 -1.05492676 77.14217987 -1.05102539 78.19541931 C-1.03473581 82.57019019 -1.00703704 86.94486764 -0.97949219 91.31958008 C-0.85588073 112.7808063 -0.85588073 112.7808063 -1.60350037 123.47570801 C-2.31520153 133.98722849 -2.36999854 144.53149149 -2.5625 155.0625 C-2.6058152 157.29753197 -2.64943299 159.53255809 -2.69335938 161.76757812 C-2.7990537 167.17832317 -2.90104215 172.58912778 -3 178 C-3.33 178 -3.66 178 -4 178 C-4.04675989 156.64211875 -4.0820084 135.28424597 -4.10362434 113.92632389 C-4.11392861 104.00905202 -4.12797271 94.09181198 -4.15087891 84.17456055 C-4.17083878 75.52878483 -4.18372261 66.88303218 -4.18817699 58.23723406 C-4.19077996 53.66109291 -4.19688041 49.08501774 -4.21146011 44.50889778 C-4.22508507 40.19730983 -4.22921273 35.88581474 -4.22621536 31.57420731 C-4.22676333 29.99606381 -4.23071141 28.41791706 -4.23841095 26.83979225 C-4.32481354 8.208737 -4.32481354 8.208737 0 0 Z " fill="#E0893C" transform="translate(109,78)"/>
<path d="M0 0 C1.64548828 0.74056641 1.64548828 0.74056641 3.32421875 1.49609375 C4.77852726 2.1434956 6.23296097 2.79061624 7.6875 3.4375 C8.40873047 3.76298828 9.12996094 4.08847656 9.87304688 4.42382812 C10.57880859 4.73642578 11.28457031 5.04902344 12.01171875 5.37109375 C12.97791138 5.8031311 12.97791138 5.8031311 13.96362305 6.24389648 C17.83883452 7.68275633 21.60303652 8.12501761 25.71673584 8.11352539 C26.63615967 8.1134549 27.5555835 8.1133844 28.50286865 8.11331177 C29.99756683 8.10556229 29.99756683 8.10556229 31.52246094 8.09765625 C32.5816272 8.09619598 33.64079346 8.09473572 34.73205566 8.0932312 C37.02974667 8.08942893 39.32743475 8.08331629 41.62511444 8.07516479 C45.2657276 8.06238998 48.90630426 8.05588223 52.54693604 8.05102539 C61.59185667 8.03765918 70.63674272 8.01349438 79.68164062 7.98962402 C87.32135067 7.96986287 94.96104766 7.95423223 102.60077667 7.94406128 C106.17965539 7.93759881 109.75848022 7.92508865 113.33734131 7.91235352 C115.54488071 7.90871871 117.75242061 7.90536726 119.95996094 7.90234375 C121.44251373 7.89459427 121.44251373 7.89459427 122.95501709 7.88668823 C138.86844319 7.88548288 138.86844319 7.88548288 145.5625 11.5625 C146.40941406 12.01753906 147.25632812 12.47257812 148.12890625 12.94140625 C148.74636719 13.29074219 149.36382812 13.64007813 150 14 C147 15 147 15 144.5 14.125 C139.72273729 12.58945127 134.98650216 12.33716563 130 12 C130 11.67 130 11.34 130 11 C129.42722321 11.00222061 128.85444641 11.00444122 128.26431274 11.00672913 C114.25528047 11.05826518 100.24680615 11.06500573 86.23773193 11.02334595 C79.46263962 11.00425183 72.68814939 10.99970494 65.91308594 11.03076172 C59.36402723 11.06073996 52.81581023 11.04838366 46.26678467 11.01119995 C43.77919736 11.0038035 41.29152672 11.01014794 38.80401611 11.03103638 C23.96271889 11.14532759 12.55384519 10.38195899 0 2 C0 1.34 0 0.68 0 0 Z " fill="#F2C395" transform="translate(228,334)"/>
<path d="M0 0 C1.11375 0.2475 1.11375 0.2475 2.25 0.5 C5.19006578 1.11925696 5.19006578 1.11925696 9 1 C10.32 1 11.64 1 13 1 C13.33 1.66 13.66 2.32 14 3 C16.12393804 3.60394973 18.27615227 4.11034511 20.4375 4.5625 C26.83619048 5.91809524 26.83619048 5.91809524 29 7 C31.36730798 7.10737303 33.70598532 7.15488357 36.07400513 7.15821838 C36.8107534 7.16315636 37.54750168 7.16809434 38.30657566 7.17318195 C40.78787752 7.18860239 43.26915342 7.19692983 45.75048828 7.20532227 C47.52416209 7.21489722 49.2978336 7.22490707 51.07150269 7.23532104 C55.89766194 7.26241763 60.72383102 7.28340141 65.55002451 7.30332303 C70.58959156 7.32515332 75.62912815 7.35255644 80.66867065 7.37937927 C90.21673219 7.42934623 99.7648106 7.47427018 109.31290519 7.51740164 C120.1809632 7.56673984 131.04899065 7.62167062 141.91701913 7.67708123 C164.27798427 7.79096272 186.63897869 7.89778829 209 8 C209 8.33 209 8.66 209 9 C184.46892674 9.11700547 159.93789554 9.20507244 135.40659904 9.25906086 C124.0152743 9.28479931 112.62412333 9.31986636 101.23291016 9.37719727 C91.29977234 9.42716581 81.36676043 9.45932266 71.43350041 9.47044247 C66.17799033 9.47693847 60.92284036 9.4921146 55.66744614 9.52865028 C50.71142515 9.56282254 45.75590942 9.57301042 40.7997818 9.56553841 C38.98989482 9.56690352 37.17998931 9.57670862 35.37020493 9.59602737 C22.33904862 9.72819783 11.2257179 8.40539761 0 1 C0 0.67 0 0.34 0 0 Z " fill="#E88743" transform="translate(143,435)"/>
<path d="M0 0 C0.73010159 0.06980544 1.46020317 0.13961088 2.21242905 0.21153164 C9.40079583 0.86028682 16.52000879 1.16434739 23.73535156 1.20532227 C24.83925735 1.21522186 25.94316315 1.22512146 27.08052063 1.23532104 C30.68386788 1.26659262 34.28722825 1.29155582 37.890625 1.31640625 C40.40696531 1.33700554 42.9233024 1.35800273 45.43963623 1.37937927 C51.35722268 1.42869789 57.27482885 1.4740411 63.19246173 1.51740164 C70.60099784 1.57193486 78.00948036 1.63274196 85.41796875 1.69335938 C98.61194258 1.80056482 111.80595278 1.90226605 125 2 C125 2.33 125 2.66 125 3 C119.40817916 4.17653886 113.94188021 4.1548012 108.25634766 4.16113281 C107.18567551 4.16609772 106.11500336 4.17106262 105.0118866 4.17617798 C101.47927197 4.19075172 97.94670222 4.19759292 94.4140625 4.203125 C91.95315551 4.20887949 89.49224853 4.21463719 87.03134155 4.22039795 C81.87505892 4.23089368 76.71879181 4.23674599 71.5625 4.24023438 C64.96290533 4.24572227 58.36351663 4.26976288 51.76398659 4.29820633 C46.68184817 4.31684789 41.59975929 4.32203908 36.51758957 4.32357025 C34.08478034 4.32659282 31.6519719 4.33460796 29.21919632 4.34775543 C25.81345247 4.3648505 22.408211 4.36292717 19.00244141 4.35644531 C18.00269791 4.3656601 17.00295441 4.37487488 15.97291565 4.3843689 C9.95386052 4.3485672 5.50797721 3.45724829 0 1 C0 0.67 0 0.34 0 0 Z " fill="#EDD2B0" transform="translate(246,314)"/>
<path d="M0 0 C0.72832031 0.59039062 1.45664063 1.18078125 2.20703125 1.7890625 C4.30471492 3.51605511 4.30471492 3.51605511 7.1875 5.375 C7.1875 6.035 7.1875 6.695 7.1875 7.375 C7.8475 7.375 8.5075 7.375 9.1875 7.375 C10.60977677 9.32874324 11.88056349 11.24886872 13.125 13.3125 C13.48327881 13.90281006 13.84155762 14.49312012 14.21069336 15.10131836 C20.80211579 26.24753028 20.80211579 26.24753028 19.74609375 31.62109375 C19.56175781 32.19988281 19.37742187 32.77867188 19.1875 33.375 C18.3480118 31.27328133 17.51610344 29.16853375 16.6875 27.0625 C16.2234375 25.89074219 15.759375 24.71898437 15.28125 23.51171875 C14.1875 20.375 14.1875 20.375 14.1875 17.375 C13.5275 17.375 12.8675 17.375 12.1875 17.375 C11.630625 16.26125 11.07375 15.1475 10.5 14 C8.56706867 10.56904689 7.01914566 9.5141379 3.1875 8.375 C2.52083333 7.04166667 1.85416667 5.70833333 1.1875 4.375 C-0.1325 4.375 -1.4525 4.375 -2.8125 4.375 C-2.8125 3.385 -2.8125 2.395 -2.8125 1.375 C-5.46478812 0.29974806 -8.09618454 -0.71956151 -10.8125 -1.625 C-10.8125 -2.285 -10.8125 -2.945 -10.8125 -3.625 C-12.1325 -3.625 -13.4525 -3.625 -14.8125 -3.625 C-14.8125 -4.285 -14.8125 -4.945 -14.8125 -5.625 C-18.82785068 -7.52579664 -22.00246591 -7.86070807 -26.42578125 -7.8203125 C-27.67294922 -7.81386719 -28.92011719 -7.80742188 -30.20507812 -7.80078125 C-31.49865234 -7.78402344 -32.79222656 -7.76726563 -34.125 -7.75 C-35.43791016 -7.74097656 -36.75082031 -7.73195312 -38.10351562 -7.72265625 C-41.34002913 -7.69911797 -44.57617149 -7.6662352 -47.8125 -7.625 C-34.05218244 -16.79854504 -11.89932399 -9.22101956 0 0 Z " fill="#F0B967" transform="translate(188.8125,55.625)"/>
<path d="M0 0 C-1.6396875 0.86625 -1.6396875 0.86625 -3.3125 1.75 C-6.3358441 3.45672651 -8.03574518 5.10530868 -10 8 C-10.66 8 -11.32 8 -12 8 C-12 8.66 -12 9.32 -12 10 C-13.670625 10.12375 -13.670625 10.12375 -15.375 10.25 C-19.00337943 10.57586194 -19.00337943 10.57586194 -20.3125 12.8125 C-20.539375 13.534375 -20.76625 14.25625 -21 15 C-21.9375 17.1875 -21.9375 17.1875 -23 19 C-23.99 19.33 -24.98 19.66 -26 20 C-27.21869929 22.50447516 -27.21869929 22.50447516 -28 25 C-28.66 25 -29.32 25 -30 25 C-30 26.32 -30 27.64 -30 29 C-30.66 29 -31.32 29 -32 29 C-32.13277344 29.68707031 -32.26554687 30.37414062 -32.40234375 31.08203125 C-32.57894531 31.98308594 -32.75554687 32.88414063 -32.9375 33.8125 C-33.11152344 34.70582031 -33.28554687 35.59914062 -33.46484375 36.51953125 C-34 39 -34 39 -35 42 C-35.14715199 43.62567079 -35.24721867 45.25586857 -35.31640625 46.88671875 C-35.35830078 47.82451172 -35.40019531 48.76230469 -35.44335938 49.72851562 C-35.50233398 51.19321289 -35.50233398 51.19321289 -35.5625 52.6875 C-35.60568359 53.67556641 -35.64886719 54.66363281 -35.69335938 55.68164062 C-35.79941654 58.12095546 -35.90147714 60.56037113 -36 63 C-38.55121924 60.44878076 -38.25776472 58.76891028 -38.27832031 55.28710938 C-38.26897461 54.53236328 -38.25962891 53.77761719 -38.25 53 C-38.24323242 52.22978516 -38.23646484 51.45957031 -38.22949219 50.66601562 C-37.9854641 37.17069498 -33.93458555 26.87038221 -26 16 C-25.13375 14.79150391 -25.13375 14.79150391 -24.25 13.55859375 C-21.4804421 10.4091833 -18.43446845 8.18716909 -15 5.8125 C-14.38382813 5.37486328 -13.76765625 4.93722656 -13.1328125 4.48632812 C-4.47507457 -1.59824092 -4.47507457 -1.59824092 0 0 Z " fill="#ECBC7C" transform="translate(141,49)"/>
<path d="M0 0 C10.70513826 0 17.3817434 6.08694231 24.72265625 13.32421875 C26.15364641 15.20157281 26.59297653 16.69353368 27 19 C26.34 19 25.68 19 25 19 C25 19.66 25 20.32 25 21 C24.01 20.67 23.02 20.34 22 20 C21.67 19.34 21.34 18.68 21 18 C20.67 18.66 20.34 19.32 20 20 C17.2160817 18.60804085 17.02101003 16.84424221 16 14 C15.01 14 14.02 14 13 14 C11.66018514 13.6937566 10.32488113 13.36548445 9 13 C9.185625 12.401875 9.37125 11.80375 9.5625 11.1875 C10.22093687 8.83591238 10.22093687 8.83591238 9 6 C6.92116373 5.30580103 6.92116373 5.30580103 4.5 5 C2.03125 4.625 2.03125 4.625 0 4 C-0.33 3.01 -0.66 2.02 -1 1 C-0.67 0.67 -0.34 0.34 0 0 Z " fill="#34386D" transform="translate(383,194)"/>
<path d="M0 0 C0.33 0 0.66 0 1 0 C3.31099492 13.28822077 1.9467347 27.05181293 -5.0625 38.8125 C-12.75851296 49.65539961 -21.46646003 57.4662627 -34 62 C-36.9140625 62.17578125 -36.9140625 62.17578125 -39 62 C-38.67 61.01 -38.34 60.02 -38 59 C-36.98679687 58.80083984 -36.98679687 58.80083984 -35.953125 58.59765625 C-35.06109375 58.42105469 -34.1690625 58.24445313 -33.25 58.0625 C-32.36828125 57.88847656 -31.4865625 57.71445312 -30.578125 57.53515625 C-28.36764947 57.07631512 -26.18487932 56.56663926 -24 56 C-24 55.34 -24 54.68 -24 54 C-23.34 54 -22.68 54 -22 54 C-21.67 52.68 -21.34 51.36 -21 50 C-20.505 50.495 -20.505 50.495 -20 51 C-19.67 50.34 -19.34 49.68 -19 49 C-18.34 49 -17.68 49 -17 49 C-17 48.34 -17 47.68 -17 47 C-16.34 47 -15.68 47 -15 47 C-15 46.34 -15 45.68 -15 45 C-15.66 44.67 -16.32 44.34 -17 44 C-16.34 43.34 -15.68 42.68 -15 42 C-13.68 42 -12.36 42 -11 42 C-8.16261303 39.91745232 -7.3179703 37.61618812 -6.3125 34.3125 C-5.93544922 33.10013672 -5.93544922 33.10013672 -5.55078125 31.86328125 C-5.36902344 31.24839844 -5.18726563 30.63351562 -5 30 C-4.34 30 -3.68 30 -3 30 C-3.04125 28.72125 -3.0825 27.4425 -3.125 26.125 C-3.1953125 23.9453125 -3.1953125 23.9453125 -3 22 C-2.34 21.34 -1.68 20.68 -1 20 C-0.63047951 17.87139338 -0.63047951 17.87139338 -0.5859375 15.4296875 C-0.54726563 14.53378906 -0.50859375 13.63789063 -0.46875 12.71484375 C-0.4378125 11.77769531 -0.406875 10.84054687 -0.375 9.875 C-0.33632813 8.93011719 -0.29765625 7.98523438 -0.2578125 7.01171875 C-0.16338654 4.67467625 -0.07781606 2.33764499 0 0 Z " fill="#EEBB7D" transform="translate(402,382)"/>
<path d="M0 0 C0.33 0 0.66 0 1 0 C1 1.65 1 3.3 1 5 C2.32 4.67 3.64 4.34 5 4 C0.54054479 17.07642336 -13.5525196 26.12367727 -25.3359375 31.96875 C-28 33 -28 33 -32 33 C-31.67 31.35 -31.34 29.7 -31 28 C-29.68 27.67 -28.36 27.34 -27 27 C-27 26.34 -27 25.68 -27 25 C-27.66 24.67 -28.32 24.34 -29 24 C-28 23 -28 23 -24.9375 22.9375 C-23.4834375 22.9684375 -23.4834375 22.9684375 -22 23 C-22.33 23.66 -22.66 24.32 -23 25 C-19.94729537 25.15811388 -19.94729537 25.15811388 -17 24 C-16.67 23.34 -16.34 22.68 -16 22 C-16 22.66 -16 23.32 -16 24 C-15.34 24 -14.68 24 -14 24 C-13.7834375 23.071875 -13.7834375 23.071875 -13.5625 22.125 C-13 20 -13 20 -12 18 C-10.02111039 17.27306096 -8.02045442 16.60183749 -6 16 C-5.67 14.02 -5.34 12.04 -5 10 C-4.01 10.33 -3.02 10.66 -2 11 C-1.90912109 9.93458984 -1.90912109 9.93458984 -1.81640625 8.84765625 C-1.73261719 7.92855469 -1.64882813 7.00945312 -1.5625 6.0625 C-1.48128906 5.14597656 -1.40007812 4.22945313 -1.31640625 3.28515625 C-1 1 -1 1 0 0 Z " fill="#8F8083" transform="translate(410,281)"/>
<path d="M0 0 C0.33 0 0.66 0 1 0 C1 5.28 1 10.56 1 16 C1.66 16.33 2.32 16.66 3 17 C2.67 17.99 2.34 18.98 2 20 C1.78444749 21.3917773 1.59806254 22.78831216 1.4375 24.1875 C1.293125 25.445625 1.14875 26.70375 1 28 C1.66 28.33 2.32 28.66 3 29 C2.67 29.33 2.34 29.66 2 30 C1.92728259 32.35313555 1.91629132 34.70833668 1.9375 37.0625 C1.94652344 38.35285156 1.95554688 39.64320313 1.96484375 40.97265625 C1.97644531 41.97167969 1.98804688 42.97070312 2 44 C2.33 44 2.66 44 3 44 C2.9278125 44.93714844 2.855625 45.87429687 2.78125 46.83984375 C1.63895289 62.90314276 1.73038705 78.97161151 2.296875 95.05859375 C2.32327057 95.83055588 2.34966614 96.60251801 2.37686157 97.39787292 C2.50941117 101.23797473 2.65439575 105.07694377 2.81982422 108.91577148 C2.87240432 110.32664775 2.92466564 111.73753594 2.9765625 113.1484375 C3.02893066 114.39802246 3.08129883 115.64760742 3.13525391 116.93505859 C3 120 3 120 1 123 C0.0454164 96.92981013 -0.12839666 70.88899337 -0.06866455 44.80328369 C-0.05819992 39.72628212 -0.05381886 34.64927501 -0.04882812 29.57226562 C-0.03829058 19.71482999 -0.02136083 9.85741774 0 0 Z " fill="#B37748" transform="translate(235,176)"/>
<path d="M0 0 C0.66 0 1.32 0 2 0 C2 0.66 2 1.32 2 2 C4.31 2 6.62 2 9 2 C7 4 7 4 4.91105461 4.24609566 C3.60856112 4.24333028 3.60856112 4.24333028 2.27975464 4.24050903 C1.28413513 4.24325836 0.28851563 4.24600769 -0.73727417 4.24884033 C-1.83347076 4.24164978 -2.92966736 4.23445923 -4.05908203 4.22705078 C-5.21029541 4.22734283 -6.36150879 4.22763489 -7.54760742 4.22793579 C-11.36775142 4.22653807 -15.18770241 4.21095592 -19.0078125 4.1953125 C-21.65054213 4.19158395 -24.29327314 4.18873623 -26.93600464 4.18673706 C-33.19043134 4.18051494 -39.44478833 4.16409429 -45.6991843 4.14403808 C-52.8187952 4.12170179 -59.93840938 4.11069137 -67.05804658 4.10064721 C-81.70540039 4.07972866 -96.35269922 4.04453851 -111 4 C-110.67 3.34 -110.34 2.68 -110 2 C-74.03 2 -38.06 2 -1 2 C-0.67 1.34 -0.34 0.68 0 0 Z " fill="#BB7E43" transform="translate(369,312)"/>
<path d="M0 0 C0.33 0 0.66 0 1 0 C1.01030746 0.94547195 1.02061493 1.89094391 1.03123474 2.86506653 C1.12891514 11.76746372 1.23164417 20.66979019 1.33933926 29.57207203 C1.3945458 34.14901633 1.44796222 38.72596705 1.49731445 43.30297852 C1.5449914 47.71855456 1.5973355 52.13405268 1.65294075 56.54953575 C1.67334919 58.23564404 1.69206478 59.92177369 1.70907402 61.60791969 C1.73315145 63.96631221 1.76320145 66.3245576 1.79467773 68.68286133 C1.8004332 69.38273163 1.80618866 70.08260193 1.81211853 70.80368042 C1.85779654 73.80693883 2.04208292 76.12624875 3 79 C2.6732039 81.33425788 2.33859959 83.66742506 2 86 C1.56205332 91.6700146 1.56205332 91.6700146 3 97 C2.94798741 98.59952304 2.82319668 100.1970207 2.66015625 101.7890625 C2.56669922 102.73007812 2.47324219 103.67109375 2.37695312 104.640625 C2.27318359 105.62546875 2.16941406 106.6103125 2.0625 107.625 C1.96259766 108.61757813 1.86269531 109.61015625 1.75976562 110.6328125 C1.51177235 113.08912681 1.25829747 115.54475137 1 118 C0.67 118 0.34 118 0 118 C0 79.06 0 40.12 0 0 Z " fill="#D9763C" transform="translate(105,256)"/>
<path d="M0 0 C4.23909658 1.3854241 6.70658025 3.32712012 9.8125 6.5 C10.60269531 7.2940625 11.39289063 8.088125 12.20703125 8.90625 C14 11 14 11 14 13 C14.66 13 15.32 13 16 13 C24.21537442 27.32007952 24.21537442 27.32007952 23.6875 31.4375 C23.460625 31.953125 23.23375 32.46875 23 33 C22.505 30.525 22.505 30.525 22 28 C21.01 27.67 20.02 27.34 19 27 C17.83203125 24.78515625 17.83203125 24.78515625 16.8125 22.0625 C16.46832031 21.16660156 16.12414062 20.27070313 15.76953125 19.34765625 C15 17 15 17 15 15 C12.60931266 13.89363605 12.60931266 13.89363605 10 13 C9.01 13.495 9.01 13.495 8 14 C7.9175 13.236875 7.835 12.47375 7.75 11.6875 C6.83347081 8.4032704 5.8033354 7.81392291 3 6 C1.25 4.5 1.25 4.5 0 3 C0 2.01 0 1.02 0 0 Z " fill="#EDBF84" transform="translate(378,349)"/>
<path d="M0 0 C2.97 0.495 2.97 0.495 6 1 C5.773125 1.9075 5.54625 2.815 5.3125 3.75 C4.67394455 6.99503501 4.67394455 6.99503501 6.4375 9.375 C6.953125 9.91125 7.46875 10.4475 8 11 C9.65 10.34 11.3 9.68 13 9 C13 9.99 13 10.98 13 12 C12.01 12.495 12.01 12.495 11 13 C11 13.66 11 14.32 11 15 C12.65 15.33 14.3 15.66 16 16 C15.67 16.99 15.34 17.98 15 19 C15.87483915 21.16715557 15.87483915 21.16715557 17 23 C12.96269506 22.37887616 10.17766402 20.5015653 7 18 C4.18083637 13.56988572 3.21942665 9.04029684 2 4 C0.98645388 1.63073608 0.98645388 1.63073608 0 0 Z " fill="#E2693F" transform="translate(114,400)"/>
<path d="M0 0 C2.14131495 3.61461284 2.67256978 7.20121724 3.375 11.3125 C4.50012202 17.40984095 5.60179574 23.11537824 10.55078125 27.31640625 C12.55371367 29.64326305 12.72733058 31.67869993 13.1875 34.6875 C13.34605469 35.68136719 13.50460938 36.67523438 13.66796875 37.69921875 C13.77753906 38.45847656 13.88710937 39.21773438 14 40 C10.36434156 36.81180722 8.39688961 33.28190006 6.4375 28.9375 C6.13448975 28.27210205 5.83147949 27.6067041 5.51928711 26.92114258 C1.53975525 17.96369563 -0.57719661 9.85509775 0 0 Z " fill="#E0987A" transform="translate(105,374)"/>
<path d="M0 0 C1.31387695 -0.0309375 1.31387695 -0.0309375 2.65429688 -0.0625 C7.47912909 -0.09176358 10.96285457 -0.03375552 14.8125 3.25 C14.8125 3.91 14.8125 4.57 14.8125 5.25 C16.1325 5.58 17.4525 5.91 18.8125 6.25 C18.1525 6.58 17.4925 6.91 16.8125 7.25 C15.8225 6.63125 14.8325 6.0125 13.8125 5.375 C5.60606834 0.51504354 -6.15713644 1.59443335 -15.1875 3.25 C-18.45253371 5.16039575 -18.45253371 5.16039575 -21.1875 7.25 C-23.5625 8 -23.5625 8 -25.1875 8.25 C-25.1875 7.26 -25.1875 6.27 -25.1875 5.25 C-17.15681553 0.06351628 -9.35308253 0.05579766 0 0 Z " fill="#E8A33B" transform="translate(159.1875,46.75)"/>
<path d="M0 0 C0.99 0 1.98 0 3 0 C3.24915091 2.88018454 3.3084052 4.51153214 1.7421875 6.9921875 C-4.25679861 13.04137433 -13.15744689 19.62557737 -21.92578125 20.1875 C-22.61027344 20.125625 -23.29476563 20.06375 -24 20 C-23.505 18.515 -23.505 18.515 -23 17 C-21.98679687 16.80083984 -21.98679687 16.80083984 -20.953125 16.59765625 C-19.61507813 16.33275391 -19.61507813 16.33275391 -18.25 16.0625 C-17.36828125 15.88847656 -16.4865625 15.71445312 -15.578125 15.53515625 C-13.36764947 15.07631512 -11.18487932 14.56663926 -9 14 C-9 13.34 -9 12.68 -9 12 C-8.34 12 -7.68 12 -7 12 C-6.67 10.68 -6.34 9.36 -6 8 C-5.67 8.33 -5.34 8.66 -5 9 C-4.67 8.34 -4.34 7.68 -4 7 C-3.34 7 -2.68 7 -2 7 C-2 6.34 -2 5.68 -2 5 C-1.34 5 -0.68 5 0 5 C0 4.34 0 3.68 0 3 C-0.66 2.67 -1.32 2.34 -2 2 C-1.34 1.34 -0.68 0.68 0 0 Z " fill="#E99E4D" transform="translate(387,424)"/>
<path d="M0 0 C1.19882813 0.00483398 1.19882813 0.00483398 2.421875 0.00976562 C3.246875 0.01814453 4.071875 0.02652344 4.921875 0.03515625 C5.76234375 0.03966797 6.6028125 0.04417969 7.46875 0.04882812 C9.53648901 0.06057664 11.60419124 0.07851103 13.671875 0.09765625 C13.341875 0.75765625 13.011875 1.41765625 12.671875 2.09765625 C11.63546875 2.05125 10.5990625 2.00484375 9.53125 1.95703125 C8.16148721 1.9195035 6.79169318 1.88310441 5.421875 1.84765625 C4.73996094 1.81414062 4.05804688 1.780625 3.35546875 1.74609375 C-0.24994313 1.67608575 -1.96881312 1.80613906 -4.8125 4.11328125 C-5.31265625 4.768125 -5.8128125 5.42296875 -6.328125 6.09765625 C-5.956875 6.67515625 -5.585625 7.25265625 -5.203125 7.84765625 C-4.77 8.96140625 -4.77 8.96140625 -4.328125 10.09765625 C-4.98570616 11.43549378 -5.65376247 12.76819869 -6.328125 14.09765625 C-6.77623637 16.45330221 -6.77623637 16.45330221 -6.953125 18.84765625 C-7.02789062 19.646875 -7.10265625 20.44609375 -7.1796875 21.26953125 C-7.22867188 21.8728125 -7.27765625 22.47609375 -7.328125 23.09765625 C-7.658125 23.09765625 -7.988125 23.09765625 -8.328125 23.09765625 C-8.328125 15.83765625 -8.328125 8.57765625 -8.328125 1.09765625 C-5.18121725 0.31092931 -3.1343629 -0.02238831 0 0 Z " fill="#2D2A50" transform="translate(243.328125,109.90234375)"/>
<path d="M0 0 C0.66 0.99 1.32 1.98 2 3 C1.1875 6.375 1.1875 6.375 0 10 C-0.86097033 13.44388133 -1.14233292 14.57300123 0 18 C-0.66 18.66 -1.32 19.32 -2 20 C-2.37322427 23.10756015 -2.37322427 23.10756015 -2.4140625 26.7578125 C-2.43342865 27.42086395 -2.4527948 28.08391541 -2.4727478 28.76705933 C-2.53255954 30.88624177 -2.57893388 33.0054785 -2.625 35.125 C-2.66317845 36.56122169 -2.70223011 37.99742045 -2.7421875 39.43359375 C-2.83826125 42.95551936 -2.92228642 46.47761608 -3 50 C-3.33 50 -3.66 50 -4 50 C-4.04979311 44.89544055 -4.08590409 39.7910255 -4.10986328 34.6862793 C-4.11986161 32.95318129 -4.13346473 31.2200999 -4.15087891 29.48706055 C-4.17540084 26.98221716 -4.18654496 24.47759864 -4.1953125 21.97265625 C-4.20563507 21.20977798 -4.21595764 20.44689972 -4.22659302 19.66090393 C-4.22801224 12.70782595 -3.31095893 6.18520228 0 0 Z " fill="#E99037" transform="translate(109,78)"/>
<path d="M0 0 C0.625 1.75 0.625 1.75 1 4 C0.35321704 5.34309122 -0.3159447 6.67550366 -1 8 C-3.03798329 14.57416591 -3.39664258 21.22604975 -3.625 28.0625 C-3.66367188 29.02349609 -3.70234375 29.98449219 -3.7421875 30.97460938 C-3.83538626 33.31622814 -3.92119185 35.65786037 -4 38 C-6.55121924 35.44878076 -6.25776472 33.76891028 -6.27832031 30.28710938 C-6.26897461 29.53236328 -6.25962891 28.77761719 -6.25 28 C-6.24323242 27.22978516 -6.23646484 26.45957031 -6.22949219 25.66601562 C-6.05820239 16.19329162 -4.22909313 8.49924542 0 0 Z " fill="#F1BC8B" transform="translate(109,74)"/>
<path d="M0 0 C1.11375 0.2475 1.11375 0.2475 2.25 0.5 C5.19006578 1.11925696 5.19006578 1.11925696 9 1 C10.32 1 11.64 1 13 1 C13.33 1.66 13.66 2.32 14 3 C15.3153341 3.70151152 16.65117592 4.36525925 18 5 C18.99 5.66 19.98 6.32 21 7 C22.9896995 7.39013716 24.99019869 7.73202649 27 8 C27 8.33 27 8.66 27 9 C17.54919634 9.94508037 7.80659557 6.24850211 0 1 C0 0.67 0 0.34 0 0 Z " fill="#E67F50" transform="translate(143,435)"/>
<path d="M0 0 C0.66 0.33 1.32 0.66 2 1 C1.835 2.299375 1.67 3.59875 1.5 4.9375 C0.31044564 13.15636612 0.31044564 13.15636612 2 21 C1.94798741 22.59952304 1.82319668 24.1970207 1.66015625 25.7890625 C1.56669922 26.73007812 1.47324219 27.67109375 1.37695312 28.640625 C1.27318359 29.62546875 1.16941406 30.6103125 1.0625 31.625 C0.96259766 32.61757813 0.86269531 33.61015625 0.75976562 34.6328125 C0.51177235 37.08912681 0.25829747 39.54475137 0 42 C-0.33 42 -0.66 42 -1 42 C-1.0247366 36.66146176 -1.0428774 31.32295697 -1.05493164 25.984375 C-1.05995741 24.16861388 -1.06677903 22.3528568 -1.07543945 20.53710938 C-1.08758189 17.9257711 -1.09324591 15.31448638 -1.09765625 12.703125 C-1.10281754 11.89256653 -1.10797882 11.08200806 -1.11329651 10.24688721 C-1.11365296 6.6579583 -0.97045947 3.45259214 0 0 Z " fill="#DC6733" transform="translate(106,332)"/>
<path d="M0 0 C3.15282585 0.70062797 6.00565474 1.8022619 9 3 C10.32676508 3.35858516 11.65835921 3.7018576 13 4 C13 4.66 13 5.32 13 6 C14.32 6.33 15.64 6.66 17 7 C15.6875 8.5 15.6875 8.5 14 10 C13.01 10 12.02 10 11 10 C10.67 9.34 10.34 8.68 10 8 C7.77260299 9.06201737 7.77260299 9.06201737 5 11 C4.87625 9.329375 4.87625 9.329375 4.75 7.625 C4.42126213 3.94246056 4.42126213 3.94246056 1.9375 2.5625 C1.298125 2.376875 0.65875 2.19125 0 2 C0 1.34 0 0.68 0 0 Z " fill="#1A1D51" transform="translate(283,116)"/>
<path d="M0 0 C1.4540625 0.0309375 1.4540625 0.0309375 2.9375 0.0625 C2.9375 2.39583333 2.9375 4.72916667 2.9375 7.0625 C-0.79215139 9.09685531 -2.73155042 10.0625 -7.0625 10.0625 C-6.7325 8.4125 -6.4025 6.7625 -6.0625 5.0625 C-4.7425 4.7325 -3.4225 4.4025 -2.0625 4.0625 C-2.0625 3.4025 -2.0625 2.7425 -2.0625 2.0625 C-2.7225 1.7325 -3.3825 1.4025 -4.0625 1.0625 C-3.0625 0.0625 -3.0625 0.0625 0 0 Z " fill="#744430" transform="translate(385.0625,303.9375)"/>
<path d="M0 0 C0.66 0.66 1.32 1.32 2 2 C-3.625 2.25 -3.625 2.25 -7 0 C-10.00705405 -0.27691055 -10.00705405 -0.27691055 -13.41796875 -0.1953125 C-14.67158203 -0.18886719 -15.92519531 -0.18242188 -17.21679688 -0.17578125 C-18.52712891 -0.15902344 -19.83746094 -0.14226563 -21.1875 -0.125 C-22.52277987 -0.11496639 -23.85806689 -0.1058412 -25.19335938 -0.09765625 C-28.46242015 -0.07405292 -31.73112028 -0.04112594 -35 0 C-25.67280345 -6.21813104 -9.98061486 -3.65062758 0 0 Z " fill="#F6D69B" transform="translate(176,48)"/>
<path d="M0 0 C3 2 3 2 3.6875 4.75 C4.33183297 10.79384324 4.07574432 16.93203799 4 23 C3.34 23.33 2.68 23.66 2 24 C2.03480469 23.25234375 2.06960938 22.5046875 2.10546875 21.734375 C2.13253906 20.74953125 2.15960938 19.7646875 2.1875 18.75 C2.22230469 17.77546875 2.25710938 16.8009375 2.29296875 15.796875 C1.95441809 12.56484471 0.97297495 11.49568519 -1 9 C-1.43227998 6.22620349 -1.1857932 3.83334637 -1 1 C-0.67 0.67 -0.34 0.34 0 0 Z " fill="#222150" transform="translate(418,229)"/>
<path d="M0 0 C21.81378535 -1.03194763 21.81378535 -1.03194763 30 5 C27 6 27 6 24.5 5.125 C19.72273729 3.58945127 14.98650216 3.33716563 10 3 C10 2.67 10 2.34 10 2 C6.7 1.67 3.4 1.34 0 1 C0 0.67 0 0.34 0 0 Z " fill="#F0BD7F" transform="translate(348,343)"/>
<path d="M0 0 C6.54556835 -0.25175263 6.54556835 -0.25175263 8.77246094 0.98193359 C11.91744453 2.41930553 14.99310347 2.35629043 18.390625 2.4140625 C19.09523865 2.43342865 19.79985229 2.4527948 20.52581787 2.4727478 C22.76709039 2.53232735 25.00841489 2.57884123 27.25 2.625 C28.77345938 2.66319979 30.29689762 2.70225269 31.8203125 2.7421875 C35.54668106 2.83801018 39.27320835 2.92212107 43 3 C43 3.33 43 3.66 43 4 C38.28606679 4.04970487 33.5722886 4.085863 28.8581543 4.10986328 C27.25689026 4.11987623 25.65564429 4.1334906 24.05444336 4.15087891 C21.74328124 4.17533565 19.43236238 4.18653029 17.12109375 4.1953125 C16.0597245 4.21079636 16.0597245 4.21079636 14.97691345 4.22659302 C10.32957486 4.22762516 6.37678705 3.56233028 2 2 C1.34 1.34 0.68 0.68 0 0 Z " fill="#E67742" transform="translate(161,440)"/>
<path d="M0 0 C3.54560701 6.61846643 3.18326731 12.87665321 3.1875 20.25 C3.19974609 21.35730469 3.21199219 22.46460938 3.22460938 23.60546875 C3.2356033 29.76939795 2.81958245 35.10253909 1 41 C0.67 41 0.34 41 0 41 C-0.0270043 39.54176788 -0.04639787 38.08339325 -0.0625 36.625 C-0.07410156 35.81289063 -0.08570313 35.00078125 -0.09765625 34.1640625 C0 32 0 32 1 30 C1.09892058 27.05274854 1.13891102 24.13431802 1.125 21.1875 C1.12886719 20.37990234 1.13273437 19.57230469 1.13671875 18.74023438 C1.13005762 14.67361175 0.9124211 10.98016764 0 7 C-0.03824623 4.66698014 -0.04574284 2.33288492 0 0 Z " fill="#A7A6BD" transform="translate(421,231)"/>
<path d="M0 0 C3.37498158 -0.02922646 6.74993021 -0.04687468 10.125 -0.0625 C11.55199219 -0.07506836 11.55199219 -0.07506836 13.0078125 -0.08789062 C17.79018487 -0.10449608 22.29771569 -0.00537055 27 1 C26.67 1.66 26.34 2.32 26 3 C23.4375 3.625 23.4375 3.625 21 4 C21 3.34 21 2.68 21 2 C16.97404451 1.85138639 16.97404451 1.85138639 13.0625 2.625 C9.79450859 3.21918026 7.0987717 2.01305998 4 1 C3.67 1.99 3.34 2.98 3 4 C2.01 3.34 1.02 2.68 0 2 C0 1.34 0 0.68 0 0 Z " fill="#252755" transform="translate(347,188)"/>
<path d="M0 0 C-1.6396875 0.86625 -1.6396875 0.86625 -3.3125 1.75 C-6.3358441 3.45672651 -8.03574518 5.10530868 -10 8 C-10.66 8 -11.32 8 -12 8 C-12 8.66 -12 9.32 -12 10 C-13.98 10.33 -15.96 10.66 -18 11 C-14.82237007 4.93361559 -7.38046203 -2.88726408 0 0 Z " fill="#E7A34F" transform="translate(141,49)"/>
<path d="M0 0 C0.99 0 1.98 0 3 0 C3.33 0.66 3.66 1.32 4 2 C5.97888961 2.72693904 7.97954558 3.39816251 10 4 C9.67 5.65 9.34 7.3 9 9 C6.03 8.505 6.03 8.505 3 8 C2.67 6.68 2.34 5.36 2 4 C1.34 4 0.68 4 0 4 C0 2.68 0 1.36 0 0 Z " fill="#21235E" transform="translate(304,128)"/>
<path d="M0 0 C4.45556408 1.40032014 6.99953665 3.43188142 10 7 C11.3125 10.3125 11.3125 10.3125 12 13 C10.68 13.33 9.36 13.66 8 14 C7.9175 13.236875 7.835 12.47375 7.75 11.6875 C6.83347081 8.4032704 5.8033354 7.81392291 3 6 C1.25 4.5 1.25 4.5 0 3 C0 2.01 0 1.02 0 0 Z " fill="#EDA448" transform="translate(378,349)"/>
<path d="M0 0 C1.32 0 2.64 0 4 0 C3.83984375 1.765625 3.83984375 1.765625 3 4 C0.56640625 5.921875 0.56640625 5.921875 -2.4375 7.75 C-3.42621094 8.36359375 -4.41492188 8.9771875 -5.43359375 9.609375 C-8 11 -8 11 -10 11 C-10 10.01 -10 9.02 -10 8 C-8 7 -8 7 -5 6 C-4.67 5.34 -4.34 4.68 -4 4 C-4 4.66 -4 5.32 -4 6 C-3.34 6 -2.68 6 -2 6 C-1.855625 5.38125 -1.71125 4.7625 -1.5625 4.125 C-1 2 -1 2 0 0 Z " fill="#907974" transform="translate(398,299)"/>
<path d="M0 0 C0.66 0 1.32 0 2 0 C3.42227677 1.95374324 4.69306349 3.87386872 5.9375 5.9375 C6.29577881 6.52781006 6.65405762 7.11812012 7.02319336 7.72631836 C13.61461579 18.87253028 13.61461579 18.87253028 12.55859375 24.24609375 C12.37425781 24.82488281 12.18992188 25.40367188 12 26 C11.1605118 23.89828133 10.32860344 21.79353375 9.5 19.6875 C9.0359375 18.51574219 8.571875 17.34398437 8.09375 16.13671875 C7 13 7 13 7 10 C6.34 10 5.68 10 5 10 C3.7109375 8.3203125 3.7109375 8.3203125 2.375 6.125 C1.92898437 5.40570313 1.48296875 4.68640625 1.0234375 3.9453125 C0 2 0 2 0 0 Z " fill="#FADFB0" transform="translate(196,63)"/>
<path d="M0 0 C7.68490153 5.0940919 7.68490153 5.0940919 9 8.875 C9 9.57625 9 10.2775 9 11 C7.35 10.67 5.7 10.34 4 10 C4 9.01 4 8.02 4 7 C3.01 6.67 2.02 6.34 1 6 C-0.1875 3.4375 -0.1875 3.4375 -1 1 C-0.67 0.67 -0.34 0.34 0 0 Z " fill="#393E6A" transform="translate(320,141)"/>
<path d="M0 0 C9.12221804 0.86058661 17.69226099 3.12305513 26 7 C24.02 7.99 24.02 7.99 22 9 C21.67 8.34 21.34 7.68 21 7 C16.96625544 4.86448818 13.5067218 4.82326581 9 5 C9 4.34 9 3.68 9 3 C5.37114676 2.84850702 5.37114676 2.84850702 2 4 C2 3.01 2 2.02 2 1 C1.34 0.67 0.68 0.34 0 0 Z " fill="#43466C" transform="translate(270,112)"/>
<path d="M0 0 C1.46067199 0.45082469 2.91848032 0.91093537 4.375 1.375 C5.18710938 1.63023437 5.99921875 1.88546875 6.8359375 2.1484375 C9 3 9 3 11 5 C10.67 5.66 10.34 6.32 10 7 C10.66 7 11.32 7 12 7 C12 7.99 12 8.98 12 10 C12.66 10 13.32 10 14 10 C13.67 10.66 13.34 11.32 13 12 C7.90789714 8.43679155 3.77339973 4.95258714 0 0 Z " fill="#DE7951" transform="translate(124,420)"/>
<path d="M0 0 C4.15151338 1.44202476 7.29978445 3.5010438 10.8125 6.125 C11.78832031 6.84945312 12.76414062 7.57390625 13.76953125 8.3203125 C14.50558594 8.87460938 15.24164063 9.42890625 16 10 C14.68 10.33 13.36 10.66 12 11 C11.67 10.01 11.34 9.02 11 8 C10.01 8 9.02 8 8 8 C8 7.34 8 6.68 8 6 C5.69 6 3.38 6 1 6 C1.66 5.01 2.32 4.02 3 3 C2.01 2.67 1.02 2.34 0 2 C0 1.34 0 0.68 0 0 Z " fill="#747592" transform="translate(296,120)"/>
<path d="M0 0 C0.66 0.33 1.32 0.66 2 1 C0.44038638 1.96302356 -1.12283225 2.92021004 -2.6875 3.875 C-3.55761719 4.40867187 -4.42773438 4.94234375 -5.32421875 5.4921875 C-9.6681195 7.93999142 -12.97993611 9.28686079 -18 9 C-17.67 8.01 -17.34 7.02 -17 6 C-15.98679687 5.80083984 -15.98679687 5.80083984 -14.953125 5.59765625 C-13.61507813 5.33275391 -13.61507813 5.33275391 -12.25 5.0625 C-11.36828125 4.88847656 -10.4865625 4.71445312 -9.578125 4.53515625 C-7.36764947 4.07631512 -5.18487932 3.56663926 -3 3 C-3 2.34 -3 1.68 -3 1 C-2.01 0.67 -1.02 0.34 0 0 Z " fill="#F2B981" transform="translate(381,435)"/>
<path d="M0 0 C1.423125 0.2784375 1.423125 0.2784375 2.875 0.5625 C5.89868793 1.28686632 5.89868793 1.28686632 8 0 C8 1.98 8 3.96 8 6 C6.68 6.33 5.36 6.66 4 7 C4 6.34 4 5.68 4 5 C3.34 5 2.68 5 2 5 C2 4.01 2 3.02 2 2 C1.34 2 0.68 2 0 2 C0 1.34 0 0.68 0 0 Z " fill="#E85D22" transform="translate(134,425)"/>
<path d="M0 0 C2.64 0 5.28 0 8 0 C7.67 0.99 7.34 1.98 7 3 C7.87483915 5.16715557 7.87483915 5.16715557 9 7 C4.75272765 6.52808085 2.76506398 4.07229331 0 1 C0 0.67 0 0.34 0 0 Z " fill="#DD5A28" transform="translate(122,416)"/>
<path d="M0 0 C2.31 0.33 4.62 0.66 7 1 C7.33 2.32 7.66 3.64 8 5 C2.46153846 5.36923077 2.46153846 5.36923077 0.125 3.5 C-0.24625 3.005 -0.6175 2.51 -1 2 C-0.67 1.34 -0.34 0.68 0 0 Z " fill="#131A4E" transform="translate(383,194)"/>
<path d="M0 0 C2 1.5 2 1.5 4 4 C4.35800135 6.75871627 4.18660165 9.20097524 4 12 C2 10 2 10 1 7 C0.34 7 -0.32 7 -1 7 C-0.67 4.69 -0.34 2.38 0 0 Z " fill="#262A54" transform="translate(337,169)"/>
<path d="M0 0 C1.32 0.99 2.64 1.98 4 3 C3.690625 3.804375 3.38125 4.60875 3.0625 5.4375 C1.81434483 9.62249087 1.3662304 13.66306101 1 18 C0.67 18 0.34 18 0 18 C0 12.06 0 6.12 0 0 Z " fill="#4B3E4D" transform="translate(235,115)"/>
<path d="M0 0 C1.258125 -0.04125 2.51625 -0.0825 3.8125 -0.125 C4.52019531 -0.14820313 5.22789062 -0.17140625 5.95703125 -0.1953125 C8 0 8 0 11 2 C12.9896995 2.39013716 14.99019869 2.73202649 17 3 C17 3.33 17 3.66 17 4 C10.66606918 4.34548714 5.89738492 3.29342747 0 1 C0 0.67 0 0.34 0 0 Z " fill="#E89972" transform="translate(153,440)"/>
<path d="M0 0 C5.82271337 -0.59720137 9.9209404 1.471757 15 4 C12.07175348 4.97608217 10.04386724 5.08226668 7 5 C7 4.34 7 3.68 7 3 C5.824375 2.814375 5.824375 2.814375 4.625 2.625 C2 2 2 2 0 0 Z " fill="#494C73" transform="translate(375,190)"/>
<path d="M0 0 C0.33 0 0.66 0 1 0 C1 1.65 1 3.3 1 5 C2.32 4.67 3.64 4.34 5 4 C4.1875 6.4375 4.1875 6.4375 3 9 C2.01 9.33 1.02 9.66 0 10 C-0.74926071 6.33694766 -1.2380014 3.57644848 0 0 Z " fill="#7D7078" transform="translate(410,281)"/>
<path d="M0 0 C2.95290136 1.37098992 5.60419752 2.77532627 8 5 C8 6.32 8 7.64 8 9 C5.1248055 7.71111971 2.9928436 6.46733017 1 4 C0.3125 1.8125 0.3125 1.8125 0 0 Z " fill="#F4BF73" transform="translate(188,56)"/>
<path d="M0 0 C0.70125 0.721875 1.4025 1.44375 2.125 2.1875 C4.92770745 4.99823813 7.92262792 7.49516226 11 10 C10.01 10.33 9.02 10.66 8 11 C5.5 9.25 5.5 9.25 3 7 C2.401875 6.505 1.80375 6.01 1.1875 5.5 C0 4 0 4 0 0 Z " fill="#EDB88B" transform="translate(217,323)"/>
<path d="M0 0 C2.97 0.495 2.97 0.495 6 1 C6.33 1.99 6.66 2.98 7 4 C6.34 4 5.68 4 5 4 C5 4.66 5 5.32 5 6 C2 5 2 5 0 3 C0 2.01 0 1.02 0 0 Z M-1 3 C-0.67 3.66 -0.34 4.32 0 5 C-0.66 4.67 -1.32 4.34 -2 4 C-1.67 3.67 -1.34 3.34 -1 3 Z " fill="#151A5A" transform="translate(403,209)"/>
<path d="M0 0 C0.99 0.495 0.99 0.495 2 1 C2 1.66 2 2.32 2 3 C2.66 3 3.32 3 4 3 C4.66 5.31 5.32 7.62 6 10 C5.34 10 4.68 10 4 10 C3.67 10.99 3.34 11.98 3 13 C3 12.01 3 11.02 3 10 C2.34 9.67 1.68 9.34 1 9 C1.33 8.01 1.66 7.02 2 6 C1.11680706 2.84979639 1.11680706 2.84979639 0 0 Z " fill="#ECA73C" transform="translate(199,70)"/>
<path d="M0 0 C4.95769796 -0.29162929 8.02806853 -0.12940055 12 3 C12 3.66 12 4.32 12 5 C13.32 5.33 14.64 5.66 16 6 C15.01 6.495 15.01 6.495 14 7 C12.3073548 6.03751548 10.61753134 5.06912617 8.953125 4.05859375 C6.06418602 2.49278883 3.18380895 1.77970831 0 1 C0 0.67 0 0.34 0 0 Z " fill="#EBAB44" transform="translate(162,47)"/>
<path d="M0 0 C2.97 0.495 2.97 0.495 6 1 C5.79375 1.94875 5.5875 2.8975 5.375 3.875 C5.25125 4.90625 5.1275 5.9375 5 7 C5.66 7.66 6.32 8.32 7 9 C6.67 9.99 6.34 10.98 6 12 C6 11.34 6 10.68 6 10 C5.34 10 4.68 10 4 10 C3.566875 8.63875 3.566875 8.63875 3.125 7.25 C2.23468224 4.67797092 1.28505587 2.38653234 0 0 Z " fill="#E55B24" transform="translate(114,400)"/>
<path d="M0 0 C0.99 0.33 1.98 0.66 3 1 C3.94921875 3.06640625 3.94921875 3.06640625 4.6875 5.5625 C4.93886719 6.38878906 5.19023437 7.21507812 5.44921875 8.06640625 C5.63097656 8.70449219 5.81273437 9.34257812 6 10 C4.35 9.67 2.7 9.34 1 9 C0.67 6.03 0.34 3.06 0 0 Z " fill="#464A6C" transform="translate(415,221)"/>
<path d="M0 0 C1.69433918 3.0469629 2.49467112 5.82821466 3.125 9.25 C3.29257812 10.14203125 3.46015625 11.0340625 3.6328125 11.953125 C3.75398438 12.62859375 3.87515625 13.3040625 4 14 C3.34 14 2.68 14 2 14 C-0.3992233 9.35150485 -0.19957409 5.08913926 0 0 Z " fill="#7B7E9A" transform="translate(341,173)"/>
<path d="M0 0 C10.55808656 0.77904328 10.55808656 0.77904328 15 3 C15 3.66 15 4.32 15 5 C8.375 4.25 8.375 4.25 5 2 C3.34450469 1.61500109 1.6777567 1.27206865 0 1 C0 0.67 0 0.34 0 0 Z " fill="#EC9E3F" transform="translate(363,346)"/>
<path d="M0 0 C0.33 0 0.66 0 1 0 C1.31563182 5.26053037 0.66590937 8.44573816 -2 13 C-2.66 13 -3.32 13 -4 13 C-3.71517632 11.58194169 -3.42181856 10.16559621 -3.125 8.75 C-2.96257812 7.96109375 -2.80015625 7.1721875 -2.6328125 6.359375 C-2.00849925 4.03168856 -1.15161458 2.10968048 0 0 Z " fill="#3C3347" transform="translate(420,265)"/>
<path d="M0 0 C1.98 1.65 3.96 3.3 6 5 C3.50907189 6.24546405 2.58919267 5.7767578 0 5 C0 5.99 0 6.98 0 8 C-0.66 8 -1.32 8 -2 8 C-2.33 6.68 -2.66 5.36 -3 4 C-2.01 4 -1.02 4 0 4 C0 2.68 0 1.36 0 0 Z " fill="#373D70" transform="translate(403,204)"/>
<path d="M0 0 C1.16161779 2.86578759 0.9946154 4.01630163 0.00390625 7.015625 C-0.70958984 8.61664063 -0.70958984 8.61664063 -1.4375 10.25 C-1.91058594 11.32765625 -2.38367188 12.4053125 -2.87109375 13.515625 C-3.24363281 14.33546875 -3.61617188 15.1553125 -4 16 C-5.16161779 13.13421241 -4.9946154 11.98369837 -4.00390625 8.984375 C-3.52824219 7.91703125 -3.05257812 6.8496875 -2.5625 5.75 C-2.08941406 4.67234375 -1.61632812 3.5946875 -1.12890625 2.484375 C-0.75636719 1.66453125 -0.38382812 0.8446875 0 0 Z " fill="#F9D7AC" transform="translate(109,74)"/>
<path d="M0 0 C0.57234375 0.21527344 1.1446875 0.43054687 1.734375 0.65234375 C0.49493224 1.52175869 -0.75769559 2.37239832 -2.015625 3.21484375 C-2.71171875 3.69050781 -3.4078125 4.16617188 -4.125 4.65625 C-6.265625 5.65234375 -6.265625 5.65234375 -8.53125 5.3046875 C-9.10359375 5.08941406 -9.6759375 4.87414063 -10.265625 4.65234375 C-9.02618224 3.78292881 -7.77355441 2.93228918 -6.515625 2.08984375 C-5.81953125 1.61417969 -5.1234375 1.13851562 -4.40625 0.6484375 C-2.265625 -0.34765625 -2.265625 -0.34765625 0 0 Z " fill="#ECCC9B" transform="translate(139.265625,48.34765625)"/>
<path d="M0 0 C0.66 0 1.32 0 2 0 C2 1.32 2 2.64 2 4 C1.34 4 0.68 4 0 4 C-0.33 5.32 -0.66 6.64 -1 8 C-1.66 8 -2.32 8 -3 8 C-3.66 6.68 -4.32 5.36 -5 4 C-4.0409375 3.8453125 -4.0409375 3.8453125 -3.0625 3.6875 C-2.381875 3.460625 -1.70125 3.23375 -1 3 C-0.67 2.01 -0.34 1.02 0 0 Z " fill="#EB9022" transform="translate(397,408)"/>
<path d="M0 0 C0.33 0 0.66 0 1 0 C1 1.65 1 3.3 1 5 C1.66 5 2.32 5 3 5 C3.33 5.99 3.66 6.98 4 8 C3.67 8.66 3.34 9.32 3 10 C2.9603287 11.66619446 2.95615553 13.33391013 3 15 C0.73045369 11.59568053 0.63450051 9.83475798 0.375 5.8125 C0.30023438 4.72582031 0.22546875 3.63914062 0.1484375 2.51953125 C0.09945312 1.68808594 0.05046875 0.85664063 0 0 Z " fill="#DC6530" transform="translate(107,378)"/>
<path d="M0 0 C0.66 0 1.32 0 2 0 C3.2890625 1.6796875 3.2890625 1.6796875 4.625 3.875 C5.29402344 4.95394531 5.29402344 4.95394531 5.9765625 6.0546875 C7 8 7 8 7 10 C6.34 10 5.68 10 5 10 C3.7109375 8.3203125 3.7109375 8.3203125 2.375 6.125 C1.92898437 5.40570313 1.48296875 4.68640625 1.0234375 3.9453125 C0 2 0 2 0 0 Z " fill="#F5D399" transform="translate(196,63)"/>
<path d="M0 0 C2.4375 0.375 2.4375 0.375 5 1 C5.33 1.66 5.66 2.32 6 3 C5.443125 3.12375 4.88625 3.2475 4.3125 3.375 C1.77885636 4.05976855 -0.57921032 4.99133763 -3 6 C-2 4 -1 2 0 0 Z " fill="#EC9A2E" transform="translate(122,60)"/>
<path d="M0 0 C6.4 -0.36923077 6.4 -0.36923077 9.4375 1.5 C9.953125 1.995 10.46875 2.49 11 3 C3.49230769 3.36923077 3.49230769 3.36923077 1 1.5 C0.67 1.005 0.34 0.51 0 0 Z " fill="#E26929" transform="translate(161,440)"/>
<path d="M0 0 C2 1.375 2 1.375 4 3 C4 3.66 4 4.32 4 5 C4.66 5 5.32 5 6 5 C6.66 6.65 7.32 8.3 8 10 C7.01 9.67 6.02 9.34 5 9 C5 8.34 5 7.68 5 7 C4.01 6.67 3.02 6.34 2 6 C0.8125 2.9375 0.8125 2.9375 0 0 Z " fill="#F2C38C" transform="translate(388,357)"/>
<path d="M0 0 C3.91402949 1.26941497 5.79072873 2.51167694 8 6 C4.62537285 5.45276317 2.91765 4.9451 0 3 C0 2.01 0 1.02 0 0 Z " fill="#F3C788" transform="translate(378,349)"/>
<path d="M0 0 C2.475 0.99 2.475 0.99 5 2 C4.625 3.9375 4.625 3.9375 4 6 C3.01 6.495 3.01 6.495 2 7 C2 6.34 2 5.68 2 5 C1.34 4.67 0.68 4.34 0 4 C0 2.68 0 1.36 0 0 Z " fill="#353B6C" transform="translate(390,195)"/>
<path d="M0 0 C0.99 0 1.98 0 3 0 C3.1875 2.375 3.1875 2.375 3 5 C2.01 5.66 1.02 6.32 0 7 C0 5.68 0 4.36 0 3 C-0.66 2.67 -1.32 2.34 -2 2 C-1.34 1.34 -0.68 0.68 0 0 Z " fill="#EB9B3E" transform="translate(387,424)"/>
<path d="M0 0 C0.86625 0.4640625 0.86625 0.4640625 1.75 0.9375 C3.84294184 1.92583364 5.74535275 2.5168613 8 3 C8 4.65 8 6.3 8 8 C6.85073734 7.04578192 5.70569459 6.08647955 4.5625 5.125 C3.92441406 4.59132813 3.28632812 4.05765625 2.62890625 3.5078125 C1 2 1 2 0 0 Z " fill="#DD896F" transform="translate(124,420)"/>
<path d="M0 0 C0.33 0 0.66 0 1 0 C1.66 3.63 2.32 7.26 3 11 C1 9.375 1 9.375 -1 7 C-1.3125 3.8125 -1.3125 3.8125 -1 1 C-0.67 0.67 -0.34 0.34 0 0 Z " fill="#DE886B" transform="translate(116,403)"/>
<path d="M0 0 C2.09749995 2.35968744 2.96905704 3.54616994 3.1875 6.75 C3.125625 7.4925 3.06375 8.235 3 9 C2.01 9.495 2.01 9.495 1 10 C0.63720544 8.71073008 0.28503302 7.41846728 -0.0625 6.125 C-0.35833984 5.04605469 -0.35833984 5.04605469 -0.66015625 3.9453125 C-1 2 -1 2 0 0 Z " fill="#EF9A2B" transform="translate(392,364)"/>
<path d="M0 0 C-3.72965139 2.03435531 -5.66905042 3 -10 3 C-10 2.01 -10 1.02 -10 0 C-3.375 -1.125 -3.375 -1.125 0 0 Z " fill="#B09285" transform="translate(388,311)"/>
<path d="M0 0 C-3.4352048 2.29013653 -4.985331 2.17842973 -9 2 C-9 1.34 -9 0.68 -9 0 C-5.93109813 -1.53445094 -3.29905734 -0.54984289 0 0 Z " fill="#7D4B38" transform="translate(388,309)"/>
<path d="M0 0 C1.65 1.32 3.3 2.64 5 4 C4.67 4.99 4.34 5.98 4 7 C3.01 6.67 2.02 6.34 1 6 C-0.1875 3.4375 -0.1875 3.4375 -1 1 C-0.67 0.67 -0.34 0.34 0 0 Z " fill="#171D51" transform="translate(320,141)"/>
<path d="M0 0 C4.67692308 1.47692308 4.67692308 1.47692308 6.3125 4.125 C6.539375 4.74375 6.76625 5.3625 7 6 C5.02 6 3.04 6 1 6 C1.66 5.01 2.32 4.02 3 3 C2.01 2.67 1.02 2.34 0 2 C0 1.34 0 0.68 0 0 Z " fill="#585A7D" transform="translate(296,120)"/>
<path d="M0 0 C0 3 0 3 -2.5 5.6875 C-3.325 6.450625 -4.15 7.21375 -5 8 C-4.45773019 4.20411134 -2.79872437 2.52788007 0 0 Z " fill="#F1C590" transform="translate(395,420)"/>
<path d="M0 0 C0.66 0 1.32 0 2 0 C1.6875 1.875 1.6875 1.875 1 4 C0.01 4.66 -0.98 5.32 -2 6 C-2 2 -2 2 0 0 Z " fill="#F17A26" transform="translate(211,321)"/>
<path d="M0 0 C0.66 0.33 1.32 0.66 2 1 C2 2.65 2 4.3 2 6 C0.68 6 -0.64 6 -2 6 C-1.34 4.02 -0.68 2.04 0 0 Z " fill="#323560" transform="translate(412,214)"/>
<path d="M0 0 C0 1.32 0 2.64 0 4 C-2.4375 3.625 -2.4375 3.625 -5 3 C-5.33 2.34 -5.66 1.68 -6 1 C-3.92446352 0.4465236 -2.15634036 0 0 0 Z " fill="#161B59" transform="translate(403,204)"/>
</svg>
